<svg width="17" height="17" viewBox="0 0 17 17" fill="none" xmlns="http://www.w3.org/2000/svg">
<path d="M8.50016 16.4166C4.12779 16.4166 0.583496 12.8723 0.583496 8.49992C0.583496 4.12754 4.12779 0.583252 8.50016 0.583252C12.8725 0.583252 16.4168 4.12754 16.4168 8.49992C16.4168 12.8723 12.8725 16.4166 8.50016 16.4166ZM8.50016 14.8333C10.1799 14.8333 11.7908 14.166 12.9785 12.9783C14.1662 11.7905 14.8335 10.1796 14.8335 8.49992C14.8335 6.82021 14.1662 5.20931 12.9785 4.02158C11.7908 2.83385 10.1799 2.16659 8.50016 2.16659C6.82046 2.16659 5.20955 2.83385 4.02182 4.02158C2.83409 5.20931 2.16683 6.82021 2.16683 8.49992C2.16683 10.1796 2.83409 11.7905 4.02182 12.9783C5.20955 14.166 6.82046 14.8333 8.50016 14.8333ZM9.29183 9.29159V12.4583C9.29183 12.6682 9.20842 12.8696 9.05995 13.018C8.91149 13.1665 8.71012 13.2499 8.50016 13.2499C8.2902 13.2499 8.08884 13.1665 7.94037 13.018C7.7919 12.8696 7.7085 12.6682 7.7085 12.4583V9.29159H4.54183C4.33187 9.29159 4.1305 9.20818 3.98204 9.05971C3.83357 8.91125 3.75016 8.70988 3.75016 8.49992C3.75016 8.28996 3.83357 8.08859 3.98204 7.94013C4.1305 7.79166 4.33187 7.70825 4.54183 7.70825H7.7085V4.54159C7.7085 4.33162 7.7919 4.13026 7.94037 3.98179C8.08884 3.83333 8.2902 3.74992 8.50016 3.74992C8.71012 3.74992 8.91149 3.83333 9.05995 3.98179C9.20842 4.13026 9.29183 4.33162 9.29183 4.54159V7.70825H12.4585C12.6685 7.70825 12.8698 7.79166 13.0183 7.94013C13.1668 8.08859 13.2502 8.28996 13.2502 8.49992C13.2502 8.70988 13.1668 8.91125 13.0183 9.05971C12.8698 9.20818 12.6685 9.29159 12.4585 9.29159H9.29183Z" fill="#047FFF"/>
</svg>
