<svg width="13" height="15" viewBox="0 0 13 15" fill="none" xmlns="http://www.w3.org/2000/svg">
<path d="M9.28378 6.81866V4.0592H9.91803V1.20507H6.79802V0H3.20716V1.20507H0.0871582V4.0592H0.721408V13.7315H5.8437C6.59142 14.5127 7.64389 15 8.80809 15C11.0713 15 12.9126 13.1587 12.9126 10.8955C12.9126 8.79311 11.3237 7.0552 9.28378 6.81866ZM8.3324 6.81866C7.75993 6.88503 7.22304 7.06953 6.74678 7.34727V4.0592H8.3324V6.81866ZM4.15853 0.951374H5.84665V1.20507H4.15853V0.951374ZM1.03853 2.15645H8.96665V3.10782H1.03853V2.15645ZM1.67278 4.0592H3.25841V12.7801H1.67278V4.0592ZM4.20978 12.7801V4.0592H5.7954V8.11104C5.11815 8.84325 4.70357 9.8218 4.70357 10.8955C4.70357 11.5745 4.86946 12.2154 5.16261 12.7801H4.20978ZM8.80809 14.0486C7.06942 14.0486 5.65495 12.6341 5.65495 10.8955C5.65495 9.15679 7.06945 7.74231 8.80809 7.74231C10.5467 7.74231 11.9613 9.15682 11.9613 10.8955C11.9613 12.6341 10.5468 14.0486 8.80809 14.0486Z" fill="#FF6F69"/>
<path d="M9.85345 9.17725L8.80811 10.2226L7.7628 9.17725L7.09009 9.84996L8.13543 10.8953L7.09009 11.9406L7.7628 12.6133L8.80811 11.568L9.85345 12.6133L10.5262 11.9406L9.48083 10.8953L10.5262 9.84996L9.85345 9.17725Z" fill="#FF6F69"/>
</svg>
