<svg width="13" height="13" viewBox="0 0 13 13" fill="none" xmlns="http://www.w3.org/2000/svg">
<path d="M8.31389 4.04063L2.19403 10.1631C2.01638 10.3408 2.01638 10.6298 2.19403 10.8075C2.28154 10.895 2.39821 10.94 2.51487 10.94C2.63154 10.94 2.74821 10.895 2.83572 10.8075L8.95557 4.68761C9.13323 4.50996 9.13323 4.22094 8.95557 4.04328C8.78057 3.86297 8.49155 3.86297 8.31389 4.04063Z" fill="#047FFF"/>
<path d="M11.4322 5.08818C11.5488 5.08818 11.6655 5.0431 11.753 4.9556L12.4212 4.2874C13.1928 3.51579 13.1928 2.26159 12.4212 1.49263L11.5091 0.580487C11.1352 0.206613 10.6393 0.00244141 10.1117 0.00244141C9.584 0.00244141 9.08816 0.209265 8.71428 0.580487L8.04608 1.24869C7.86843 1.42634 7.86843 1.71536 8.04608 1.89302L11.1113 4.95825C11.1988 5.0431 11.3155 5.08818 11.4322 5.08818ZM9.35862 1.21952C9.56014 1.018 9.82795 0.906631 10.1143 0.906631C10.398 0.906631 10.6685 1.018 10.87 1.21952L11.7822 2.13166C12.1985 2.54796 12.1985 3.22412 11.7822 3.64041L11.4322 3.99042L9.00861 1.56688L9.35862 1.21952Z" fill="#047FFF"/>
<path d="M4.31806 12.388L10.7747 5.93144C10.9523 5.75378 10.9523 5.46476 10.7747 5.2871C10.597 5.10945 10.308 5.10945 10.1303 5.2871L3.78509 11.6376L0.985021 12.0142L1.36155 9.2141L7.42307 3.15258C7.60072 2.97492 7.60072 2.6859 7.42307 2.50824C7.24541 2.33059 6.95639 2.33059 6.77873 2.50824L0.611148 8.68113C0.539555 8.75272 0.494478 8.84288 0.48122 8.94098L0.00393499 12.4835C-0.0146261 12.624 0.0331024 12.7646 0.133863 12.8653C0.218713 12.9502 0.335383 12.9979 0.454704 12.9979C0.475917 12.9979 0.494478 12.9953 0.515691 12.9926L4.05821 12.5153C4.15631 12.5047 4.24912 12.4596 4.31806 12.388Z" fill="#047FFF"/>
</svg>
