<svg width="27" height="27" viewBox="0 0 27 27" fill="none" xmlns="http://www.w3.org/2000/svg">
<path fill-rule="evenodd" clip-rule="evenodd" d="M7.875 3.375C9.97182 3.375 11.7336 4.80912 12.2332 6.75H21.375V9H12.2332C11.7336 10.9409 9.97182 12.375 7.875 12.375C5.38972 12.375 3.375 10.3603 3.375 7.875C3.375 5.38972 5.38972 3.375 7.875 3.375ZM7.875 10.125C9.11764 10.125 10.125 9.11764 10.125 7.875C10.125 6.63236 9.11764 5.625 7.875 5.625C6.63236 5.625 5.625 6.63236 5.625 7.875C5.625 9.11764 6.63236 10.125 7.875 10.125Z" fill="#047FFF"/>
<path fill-rule="evenodd" clip-rule="evenodd" d="M17.5 23C15.4032 23 13.6414 21.5659 13.1418 19.625H4V17.375H13.1418C13.6414 15.4341 15.4032 14 17.5 14C19.9852 14 22 16.0148 22 18.5C22 20.9852 19.9852 23 17.5 23ZM17.5 20.75C18.7427 20.75 19.75 19.7427 19.75 18.5C19.75 17.2573 18.7427 16.25 17.5 16.25C16.2573 16.25 15.25 17.2573 15.25 18.5C15.25 19.7427 16.2573 20.75 17.5 20.75Z" fill="#047FFF"/>
</svg>
