<svg width="27" height="27" viewBox="0 0 27 27" fill="none" xmlns="http://www.w3.org/2000/svg">
<path fill-rule="evenodd" clip-rule="evenodd" d="M7.875 3.375C9.97182 3.375 11.7336 4.80912 12.2332 6.75H21.375V9H12.2332C11.7336 10.9409 9.97182 12.375 7.875 12.375C5.38972 12.375 3.375 10.3603 3.375 7.875C3.375 5.38972 5.38972 3.375 7.875 3.375ZM7.875 10.125C9.11764 10.125 10.125 9.11764 10.125 7.875C10.125 6.63236 9.11764 5.625 7.875 5.625C6.63236 5.625 5.625 6.63236 5.625 7.875C5.625 9.11764 6.63236 10.125 7.875 10.125Z" fill="#047FFF"/>
<path fill-rule="evenodd" clip-rule="evenodd" d="M19.125 22.5C17.0282 22.5 15.2664 21.0659 14.7668 19.125H5.625V16.875H14.7668C15.2664 14.9341 17.0282 13.5 19.125 13.5C21.6102 13.5 23.625 15.5148 23.625 18C23.625 20.4852 21.6102 22.5 19.125 22.5ZM19.125 20.25C20.3677 20.25 21.375 19.2427 21.375 18C21.375 16.7573 20.3677 15.75 19.125 15.75C17.8823 15.75 16.875 16.7573 16.875 18C16.875 19.2427 17.8823 20.25 19.125 20.25Z" fill="#047FFF"/>
</svg>
